<?xml version="1.0" encoding="UTF-8"?>
<!DOCTYPE svg PUBLIC "-//W3C//DTD SVG 1.1//EN" "http://www.w3.org/Graphics/SVG/1.1/DTD/svg11.dtd">
<svg xmlns="http://www.w3.org/2000/svg" version="1.1" width="425px" height="36px" style="shape-rendering:geometricPrecision; text-rendering:geometricPrecision; image-rendering:optimizeQuality; fill-rule:evenodd; clip-rule:evenodd" xmlns:xlink="http://www.w3.org/1999/xlink">
<g><path style="opacity:0.916" fill="#ff7600" d="M -0.5,-0.5 C 2.5,-0.5 5.5,-0.5 8.5,-0.5C 9.65885,6.29446 11.3255,12.9611 13.5,19.5C 15.2632,12.9213 16.5965,6.25464 17.5,-0.5C 20.5,-0.5 23.5,-0.5 26.5,-0.5C 27.8054,6.86021 29.3054,14.1935 31,21.5C 32.8419,14.1323 34.6753,6.79893 36.5,-0.5C 39.1667,-0.5 41.8333,-0.5 44.5,-0.5C 41.3425,11.1303 38.3425,22.7969 35.5,34.5C 32.5,34.5 29.5,34.5 26.5,34.5C 25.3231,26.7818 23.8231,19.1152 22,11.5C 20.4328,19.169 18.9328,26.8356 17.5,34.5C 14.5525,34.7771 11.7191,34.4438 9,33.5C 6.29756,22.5717 3.1309,11.9051 -0.5,1.5C -0.5,0.833333 -0.5,0.166667 -0.5,-0.5 Z"/></g>
<g><path style="opacity:0.913" fill="#ff7600" d="M 47.5,-0.5 C 49.8333,-0.5 52.1667,-0.5 54.5,-0.5C 54.3347,3.18174 54.5014,6.84841 55,10.5C 60.2748,6.35269 65.2748,6.68602 70,11.5C 71.3961,19.0804 71.8961,26.747 71.5,34.5C 68.8333,34.5 66.1667,34.5 63.5,34.5C 63.6661,28.8236 63.4994,23.1569 63,17.5C 59.3854,13.2351 56.7187,13.9018 55,19.5C 54.5007,24.4889 54.3341,29.4889 54.5,34.5C 52.1667,34.5 49.8333,34.5 47.5,34.5C 47.5,22.8333 47.5,11.1667 47.5,-0.5 Z"/></g>
<g><path style="opacity:0.984" fill="#ff7600" d="M 105.5,-0.5 C 108.167,-0.5 110.833,-0.5 113.5,-0.5C 113.5,11.1667 113.5,22.8333 113.5,34.5C 110.833,34.5 108.167,34.5 105.5,34.5C 105.5,22.8333 105.5,11.1667 105.5,-0.5 Z"/></g>
<g><path style="opacity:0.913" fill="#ff7600" d="M 175.5,-0.5 C 177.833,-0.5 180.167,-0.5 182.5,-0.5C 182.335,3.18174 182.501,6.84841 183,10.5C 188.275,6.35269 193.275,6.68602 198,11.5C 199.396,19.0804 199.896,26.747 199.5,34.5C 196.833,34.5 194.167,34.5 191.5,34.5C 191.666,28.8236 191.499,23.1569 191,17.5C 187.385,13.2351 184.719,13.9018 183,19.5C 182.501,24.4889 182.334,29.4889 182.5,34.5C 180.167,34.5 177.833,34.5 175.5,34.5C 175.5,22.8333 175.5,11.1667 175.5,-0.5 Z"/></g>
<g><path style="opacity:0.869" fill="#ff7700" d="M 204.5,-0.5 C 206.833,-0.5 209.167,-0.5 211.5,-0.5C 211.5,1.83333 211.5,4.16667 211.5,6.5C 209.167,6.5 206.833,6.5 204.5,6.5C 204.5,4.16667 204.5,1.83333 204.5,-0.5 Z"/></g>
<g><path style="opacity:0.916" fill="#ff7600" d="M 241.5,-0.5 C 244.5,-0.5 247.5,-0.5 250.5,-0.5C 251.659,6.29446 253.326,12.9611 255.5,19.5C 257.263,12.9213 258.597,6.25464 259.5,-0.5C 262.5,-0.5 265.5,-0.5 268.5,-0.5C 269.805,6.86021 271.305,14.1935 273,21.5C 274.842,14.1323 276.675,6.79893 278.5,-0.5C 281.167,-0.5 283.833,-0.5 286.5,-0.5C 283.342,11.1303 280.342,22.7969 277.5,34.5C 274.5,34.5 271.5,34.5 268.5,34.5C 267.323,26.7818 265.823,19.1152 264,11.5C 262.433,19.169 260.933,26.8356 259.5,34.5C 256.552,34.7771 253.719,34.4438 251,33.5C 247.928,22.1201 244.761,10.7868 241.5,-0.5 Z"/></g>
<g><path style="opacity:0.867" fill="#ff7700" d="M 314.5,-0.5 C 317.167,-0.5 319.833,-0.5 322.5,-0.5C 322.335,3.18174 322.501,6.84841 323,10.5C 327.566,6.74478 332.233,6.74478 337,10.5C 340.763,16.4567 341.429,22.79 339,29.5C 337.64,32.0226 335.807,34.0226 333.5,35.5C 330.833,35.5 328.167,35.5 325.5,35.5C 324.828,34.7326 323.995,34.0659 323,33.5C 320.281,34.4438 317.448,34.7771 314.5,34.5C 314.5,22.8333 314.5,11.1667 314.5,-0.5 Z M 326.5,14.5 C 330.74,15.1256 332.74,17.6256 332.5,22C 332.186,28.3902 329.353,30.2235 324,27.5C 321.35,22.2661 322.183,17.9328 326.5,14.5 Z"/></g>
<g><path style="opacity:0.869" fill="#ff7700" d="M 371.5,-0.5 C 373.833,-0.5 376.167,-0.5 378.5,-0.5C 378.5,1.83333 378.5,4.16667 378.5,6.5C 376.167,6.5 373.833,6.5 371.5,6.5C 371.5,4.16667 371.5,1.83333 371.5,-0.5 Z"/></g>
<g><path style="opacity:0.914" fill="#ff7600" d="M 142.5,-0.5 C 152.167,-0.5 161.833,-0.5 171.5,-0.5C 171.5,1.83333 171.5,4.16667 171.5,6.5C 168.167,6.5 164.833,6.5 161.5,6.5C 161.5,15.8333 161.5,25.1667 161.5,34.5C 158.833,34.5 156.167,34.5 153.5,34.5C 153.5,25.1667 153.5,15.8333 153.5,6.5C 149.833,6.5 146.167,6.5 142.5,6.5C 142.5,4.16667 142.5,1.83333 142.5,-0.5 Z"/></g>
<g><path style="opacity:0.915" fill="#ff7600" d="M 397.5,35.5 C 394.833,35.5 392.167,35.5 389.5,35.5C 388.828,34.7326 387.995,34.0659 387,33.5C 386.5,27.1754 386.334,20.8421 386.5,14.5C 385.167,14.5 383.833,14.5 382.5,14.5C 382.5,12.5 382.5,10.5 382.5,8.5C 383.833,8.5 385.167,8.5 386.5,8.5C 386.5,6.16667 386.5,3.83333 386.5,1.5C 388.833,1.5 391.167,1.5 393.5,1.5C 393.5,3.83333 393.5,6.16667 393.5,8.5C 394.833,8.5 396.167,8.5 397.5,8.5C 397.5,10.5 397.5,12.5 397.5,14.5C 396.167,14.5 394.833,14.5 393.5,14.5C 393.334,19.1785 393.501,23.8452 394,28.5C 395.011,29.3366 396.178,29.67 397.5,29.5C 397.5,31.5 397.5,33.5 397.5,35.5 Z"/></g>
<g><path style="opacity:0.902" fill="#ff7600" d="M 93.5,35.5 C 89.8333,35.5 86.1667,35.5 82.5,35.5C 76.0374,31.307 73.5374,25.307 75,17.5C 76.6946,10.8118 81.0279,7.47846 88,7.5C 94.4244,7.54104 98.7578,10.541 101,16.5C 103.052,24.8767 100.552,31.21 93.5,35.5 Z M 85.5,14.5 C 92.382,14.8865 94.882,18.5532 93,25.5C 89.6667,30.8333 86.3333,30.8333 83,25.5C 81.9464,21.3445 82.7798,17.6779 85.5,14.5 Z"/></g>
<g><path style="opacity:0.882" fill="#ff7600" d="M 135.5,35.5 C 131.5,35.5 127.5,35.5 123.5,35.5C 119.482,33.4615 117.482,30.1281 117.5,25.5C 120.167,25.5 122.833,25.5 125.5,25.5C 125.281,26.675 125.614,27.675 126.5,28.5C 128.747,29.3742 131.08,29.7076 133.5,29.5C 133.719,28.325 133.386,27.325 132.5,26.5C 127.466,25.5504 122.966,23.5504 119,20.5C 117.925,10.5886 122.425,6.42189 132.5,8C 137.26,8.92517 140.26,11.7585 141.5,16.5C 140.167,16.8333 138.833,17.1667 137.5,17.5C 134.504,16.863 131.837,15.5297 129.5,13.5C 128.328,13.9186 127.328,14.5853 126.5,15.5C 130.594,17.5966 134.927,19.43 139.5,21C 143.059,27.3477 141.726,32.181 135.5,35.5 Z"/></g>
<g><path style="opacity:0.882" fill="#ff7600" d="M 233.5,35.5 C 229.5,35.5 225.5,35.5 221.5,35.5C 217.482,33.4615 215.482,30.1281 215.5,25.5C 218.167,25.5 220.833,25.5 223.5,25.5C 223.281,26.675 223.614,27.675 224.5,28.5C 226.747,29.3742 229.08,29.7076 231.5,29.5C 231.719,28.325 231.386,27.325 230.5,26.5C 225.466,25.5504 220.966,23.5504 217,20.5C 215.925,10.5886 220.425,6.42189 230.5,8C 235.26,8.92517 238.26,11.7585 239.5,16.5C 238.167,16.8333 236.833,17.1667 235.5,17.5C 232.504,16.863 229.837,15.5297 227.5,13.5C 226.328,13.9186 225.328,14.5853 224.5,15.5C 228.594,17.5966 232.927,19.43 237.5,21C 241.059,27.3477 239.726,32.181 233.5,35.5 Z"/></g>
<g><path style="opacity:0.906" fill="#ff7600" d="M 305.5,35.5 C 301.833,35.5 298.167,35.5 294.5,35.5C 292.645,33.9669 290.812,32.3003 289,30.5C 287.445,25.6178 287.112,20.6178 288,15.5C 292.641,7.40035 299.141,5.56702 307.5,10C 311.446,14.0023 313.112,18.8356 312.5,24.5C 306.833,24.5 301.167,24.5 295.5,24.5C 295.379,27.5409 296.879,29.2076 300,29.5C 303.456,27.1774 307.289,26.1774 311.5,26.5C 311.116,30.5552 309.116,33.5552 305.5,35.5 Z M 297.5,14.5 C 300.657,14.0785 302.99,15.2452 304.5,18C 301.446,18.8214 298.446,18.6548 295.5,17.5C 296.193,16.4822 296.859,15.4822 297.5,14.5 Z"/></g>
<g><path style="opacity:0.882" fill="#ff7600" d="M 361.5,35.5 C 357.5,35.5 353.5,35.5 349.5,35.5C 345.482,33.4615 343.482,30.1281 343.5,25.5C 346.167,25.5 348.833,25.5 351.5,25.5C 351.281,26.675 351.614,27.675 352.5,28.5C 354.747,29.3742 357.08,29.7076 359.5,29.5C 359.719,28.325 359.386,27.325 358.5,26.5C 353.466,25.5504 348.966,23.5504 345,20.5C 343.925,10.5886 348.425,6.42189 358.5,8C 363.26,8.92517 366.26,11.7585 367.5,16.5C 366.167,16.8333 364.833,17.1667 363.5,17.5C 360.504,16.863 357.837,15.5297 355.5,13.5C 354.328,13.9186 353.328,14.5853 352.5,15.5C 356.594,17.5966 360.927,19.43 365.5,21C 369.059,27.3477 367.726,32.181 361.5,35.5 Z"/></g>
<g><path style="opacity:0.906" fill="#ff7600" d="M 424.5,17.5 C 424.5,19.8333 424.5,22.1667 424.5,24.5C 418.833,24.5 413.167,24.5 407.5,24.5C 407.379,27.5409 408.879,29.2076 412,29.5C 415.456,27.1774 419.289,26.1774 423.5,26.5C 423.116,30.5552 421.116,33.5552 417.5,35.5C 413.833,35.5 410.167,35.5 406.5,35.5C 403.861,33.691 401.694,31.3576 400,28.5C 399.333,24.1667 399.333,19.8333 400,15.5C 404.641,7.40035 411.141,5.56702 419.5,10C 421.823,12.1699 423.49,14.6699 424.5,17.5 Z M 409.5,14.5 C 412.657,14.0785 414.99,15.2452 416.5,18C 413.446,18.8214 410.446,18.6548 407.5,17.5C 408.193,16.4822 408.859,15.4822 409.5,14.5 Z"/></g>
<g><path style="opacity:0.965" fill="#ff7600" d="M 204.5,8.5 C 206.833,8.5 209.167,8.5 211.5,8.5C 211.5,17.1667 211.5,25.8333 211.5,34.5C 209.167,34.5 206.833,34.5 204.5,34.5C 204.5,25.8333 204.5,17.1667 204.5,8.5 Z"/></g>
<g><path style="opacity:0.965" fill="#ff7600" d="M 371.5,8.5 C 373.833,8.5 376.167,8.5 378.5,8.5C 378.5,17.1667 378.5,25.8333 378.5,34.5C 376.167,34.5 373.833,34.5 371.5,34.5C 371.5,25.8333 371.5,17.1667 371.5,8.5 Z"/></g>
</svg>
